# xmcd
#
# Track frame offsets: 
#        150
#        18015
#        37350
#        58035
#        74454
#        93406
#        113509
#        132558
#        146898
#        174808
#        200813
#        218790
#
# Disc length: 3437 seconds
#
# Revision: 0
# Processed by: cddbd v1.5.2PL0 Copyright (c) Steve Scherf et al.
# Submitted via: ExactAudioCopy v1.2
#
DISCID=b50d6b0c
DTITLE=Jeff Chaz - Sounds Like the Blues to Me
DYEAR=2016
DGENRE=Blues
TTITLE0=Sounds Like the Blues to Me
TTITLE1=Make Love to You in the Sand
TTITLE2=Hitchhiking in the Rain
TTITLE3=I Am the Blues
TTITLE4=You Look So Good to Me
TTITLE5=Mysterious, Exotic Lady
TTITLE6=I'm Goin' After Moby Dick in a Rowboat
TTITLE7=Four in the Morning
TTITLE8=Will You Be Mine
TTITLE9=Walkin' With My Baby
TTITLE10=The Mt Vernon Blues
TTITLE11=You're Bound to Get Us Both Hung
EXTD=
EXTT0=
EXTT1=
EXTT2=
EXTT3=
EXTT4=
EXTT5=
EXTT6=
EXTT7=
EXTT8=
EXTT9=
EXTT10=
EXTT11=
PLAYORDER=
